<?xml version="1.0" standalone="no"?>
<!DOCTYPE svg PUBLIC "-//W3C//DTD SVG 20010904//EN"
 "http://www.w3.org/TR/2001/REC-SVG-20010904/DTD/svg10.dtd">
<svg version="1.0" xmlns="http://www.w3.org/2000/svg"
 width="294.000000pt" height="294.000000pt" viewBox="0 0 294.000000 294.000000"
 preserveAspectRatio="xMidYMid meet">
<metadata>
Created by potrace 1.11, written by Peter Selinger 2001-2013
</metadata>
<g transform="translate(0.000000,294.000000) scale(0.100000,-0.100000)"
fill="#000000" stroke="none">
<path d="M1300 2872 c-54 -7 -226 -45 -241 -53 -9 -4 -27 -10 -40 -13 -53 -10
-225 -94 -325 -158 -99 -64 -248 -200 -314 -287 -14 -18 -31 -39 -37 -46 -20
-21 -123 -193 -123 -205 0 -5 -4 -10 -8 -10 -5 0 -9 -6 -9 -12 -1 -7 -15 -47
-32 -88 -36 -89 -43 -108 -48 -135 -9 -40 -12 -50 -14 -50 -1 0 -3 -9 -5 -20
-1 -11 -5 -31 -8 -45 -16 -72 -20 -118 -20 -255 0 -158 13 -299 30 -327 3 -5
8 -24 11 -41 3 -18 10 -38 15 -45 6 -6 8 -12 5 -12 -4 0 5 -28 18 -63 74 -199
173 -354 320 -503 73 -74 195 -174 213 -174 6 0 12 -4 14 -8 11 -27 231 -135
343 -168 64 -19 65 -19 107 -27 15 -3 31 -8 35 -10 45 -27 511 -28 555 -1 5 3
18 7 31 10 54 10 67 13 113 29 27 9 54 18 59 19 50 13 212 97 298 154 201 135
376 336 474 542 36 77 57 125 59 135 1 6 9 30 17 55 21 60 35 116 43 165 3 22
9 60 14 85 8 45 6 334 -4 380 -2 14 -7 37 -10 53 -3 15 -8 39 -12 55 -8 44 -9
46 -17 60 -5 6 -6 12 -3 12 3 0 -2 19 -10 43 -9 23 -17 49 -19 57 -2 8 -10 29
-18 45 -8 17 -27 56 -42 87 -14 32 -31 60 -36 63 -5 4 -7 11 -4 16 4 5 1 9 -4
9 -6 0 -11 6 -11 14 0 8 -6 21 -13 28 -7 7 -28 35 -47 63 -19 27 -41 58 -50
69 -27 34 -176 186 -183 186 -3 0 -18 11 -33 25 -25 23 -113 85 -159 112 -75
43 -226 111 -262 118 -14 2 -31 9 -39 16 -8 6 -14 9 -14 6 0 -3 -21 0 -47 8
-103 30 -218 43 -363 42 -69 -1 -136 -3 -150 -5z"/>
</g>
</svg>
